<?xml version="1.0" encoding="UTF-8"?><svg id="_レイヤー_1" xmlns="http://www.w3.org/2000/svg" width="76.62mm" height="16.457mm" viewBox="0 0 217.192 46.651"><defs><style>.cls-1{fill:#f7f8f8;}.cls-2{fill:#040000;}.cls-3{fill:#006098;}.cls-4{fill:#f4f4f4;}.cls-5{fill:#fff;}</style></defs><polygon class="cls-2" points="27.523 0 26.81 .602 1.019 22.463 0 23.325 1.019 24.187 26.81 46.047 27.523 46.651 28.238 46.047 54.031 24.187 55.05 23.325 54.031 22.463 28.238 .602 27.523 0"/><polygon class="cls-5" points="1.732 23.325 27.523 45.183 53.317 23.325 27.523 1.467 1.732 23.325"/><polygon class="cls-3" points="39.455 11.577 39.455 35.072 53.317 23.325 39.455 11.577"/><polygon class="cls-5" points="50.3 23.325 45.913 22.697 46.85 20.609 44.946 21.918 44.313 18.018 43.678 21.918 41.989 21.04 42.994 23.329 41.989 25.61 43.678 24.733 44.313 28.633 44.946 24.733 46.85 26.043 45.913 23.953 50.3 23.325"/><polygon class="cls-2" points="20.482 13.65 36.616 13.65 36.616 11.58 18.387 11.58 18.387 33.381 20.482 35.27 20.482 13.65"/><polygon class="cls-2" points="21.249 14.427 21.249 22.366 32.573 22.366 32.573 20.271 23.252 20.271 23.252 16.501 36.616 16.501 36.616 14.427 21.249 14.427"/><polygon class="cls-2" points="21.249 23.102 21.249 35.964 23.252 37.771 23.252 25.195 32.573 25.195 32.573 23.102 21.249 23.102"/><path class="cls-4" d="M190.593,29.586h-7.109v-3.916h7.109v3.916Zm2.356,1.568v-7.87h-11.816v8.687h10.233l1.583-.817Z"/><polygon class="cls-4" points="181.133 32.701 181.133 41.988 183.484 41.988 183.484 35.083 186.846 35.083 190.035 41.988 192.638 41.988 188.349 32.701 181.133 32.701"/><polygon class="cls-4" points="178.053 41.987 180.409 41.987 180.409 22.558 193.672 22.558 193.672 31.603 191.531 32.701 189.148 32.701 193.428 41.987 196.027 41.987 192.7 34.772 196.027 33.063 196.027 20.175 178.053 20.175 178.053 41.987"/><polygon class="cls-4" points="63.87 41.987 66.221 41.987 66.221 22.558 81.845 22.558 81.845 20.175 63.87 20.175 63.87 41.987"/><polygon class="cls-4" points="66.944 30.714 78.045 30.714 78.045 28.331 69.295 28.331 69.295 25.671 81.845 25.671 81.845 23.284 66.944 23.284 66.944 30.714"/><polygon class="cls-4" points="66.944 41.987 69.295 41.987 69.295 33.828 78.045 33.828 78.045 31.445 66.944 31.445 66.944 41.987"/><rect class="cls-4" x="87.62" y="20.175" width="2.356" height="21.812"/><rect class="cls-4" x="84.546" y="20.175" width="2.352" height="21.812"/><polygon class="cls-4" points="96.978 38.872 108.794 38.872 108.794 30.099 108.794 30.008 106.443 31.288 106.443 36.489 99.334 36.489 99.334 25.67 111.868 25.67 111.868 23.284 96.978 23.284 96.978 38.872"/><polygon class="cls-4" points="93.902 41.987 111.868 41.987 111.868 28.331 109.516 29.614 109.516 39.6 96.259 39.6 96.259 22.558 111.868 22.558 111.868 20.175 93.902 20.175 93.902 41.987"/><polygon class="cls-4" points="145.423 41.987 147.779 41.987 147.779 25.67 153.053 25.67 153.053 23.284 145.423 23.284 145.423 41.987"/><polygon class="cls-4" points="137.065 23.284 137.065 25.67 142.348 25.67 142.348 41.987 144.698 41.987 144.698 23.284 137.065 23.284"/><rect class="cls-4" x="137.065" y="20.175" width="15.988" height="2.383"/><polygon class="cls-4" points="156.362 41.987 174.335 41.987 174.335 39.6 158.714 39.6 158.714 22.558 174.335 22.558 174.335 20.175 156.362 20.175 156.362 41.987"/><polygon class="cls-4" points="159.438 30.714 170.539 30.714 170.539 28.331 161.794 28.331 161.794 25.671 174.335 25.671 174.335 23.284 159.438 23.284 159.438 30.714"/><polygon class="cls-4" points="159.438 38.872 174.335 38.872 174.335 36.489 161.794 36.489 161.794 33.828 170.539 33.828 170.539 31.446 159.438 31.446 159.438 38.872"/><polygon class="cls-4" points="214.116 31.445 201.576 31.445 201.576 22.558 217.191 22.558 217.191 20.174 199.219 20.174 199.219 33.829 211.76 33.829 211.76 36.489 199.219 36.489 199.219 38.872 214.116 38.872 214.116 31.445"/><polygon class="cls-4" points="204.655 28.331 204.655 25.67 217.191 25.67 217.191 23.284 202.299 23.284 202.299 30.714 214.835 30.714 214.835 39.601 199.219 39.601 199.219 41.987 217.191 41.987 217.191 28.331 204.655 28.331"/><polygon class="cls-4" points="118.866 31.445 118.866 41.988 121.225 41.988 121.225 33.829 128.329 33.829 128.329 41.988 130.69 41.988 130.69 31.445 118.866 31.445"/><polygon class="cls-4" points="130.69 30.714 130.69 20.175 128.329 20.175 128.329 28.331 121.225 28.331 121.225 20.175 118.866 20.175 118.866 30.714 130.69 30.714"/><rect class="cls-4" x="131.409" y="20.175" width="2.357" height="21.812"/><rect class="cls-4" x="115.79" y="20.175" width="2.356" height="21.812"/><polygon class="cls-4" points="189.349 4.664 189.343 4.664 188.316 4.664 188.316 14.205 189.343 14.205 189.349 14.205 189.349 4.664"/><polygon class="cls-4" points="189.664 9.587 189.664 14.206 190.691 14.206 190.691 10.639 193.795 10.639 193.795 14.206 194.829 14.206 194.832 14.206 194.832 9.587 189.664 9.587"/><rect class="cls-4" x="195.146" y="4.665" width="1.027" height="9.541"/><polygon class="cls-4" points="194.832 9.267 194.832 4.664 194.83 4.664 193.795 4.664 193.795 8.232 190.691 8.232 190.691 4.664 189.664 4.664 189.664 9.267 194.832 9.267"/><rect class="cls-4" x="148.757" y="4.665" width="1.035" height="9.541"/><rect class="cls-4" x="147.414" y="4.665" width="1.026" height="9.541"/><polygon class="cls-4" points="151.25 14.205 152.278 14.205 152.278 5.706 158.072 5.706 158.072 9.661 158.073 9.663 157.144 10.142 152.591 10.142 152.591 14.205 153.625 14.205 153.625 11.188 157.4 11.188 159.11 10.302 159.11 4.669 151.25 4.669 151.25 14.205"/><path class="cls-4" d="M156.732,8.782h-3.106v-1.712h3.106v1.712Zm.337,1.041l.688-.354v-3.444h-5.166v3.8h4.478v-.002Z"/><path class="cls-4" d="M172.268,7.07h3.108v4.729h-3.108V7.07Zm-1.011,5.757h5.155V6.025h-5.155v6.802Z"/><path class="cls-4" d="M170.94,5.707h5.784v7.44h-5.784V5.707Zm-1.05,8.499h7.863V4.665h-7.863V14.206Z"/><path class="cls-4" d="M166.055,8.782h-3.11v-1.712h3.11v1.712Zm.334,1.041l.689-.354v-3.444h-5.162v3.8h4.473v-.002Z"/><polygon class="cls-4" points="160.572 14.205 161.6 14.205 161.607 5.706 167.393 5.706 167.393 9.661 167.396 9.663 166.467 10.142 161.916 10.142 161.916 14.205 162.945 14.205 162.945 11.188 166.719 11.188 168.43 10.302 168.43 4.669 160.572 4.669 160.572 14.205"/><polygon class="cls-4" points="197.568 11.589 198.056 12.645 197.447 14.206 198.463 14.206 199.489 11.589 197.568 11.589"/><path class="cls-4" d="M201.373,10.244l.999-2.544,.994,2.544h-1.993Zm.635-4.219l-2.054,5.245h4.839l-2.058-5.245h-.727Z"/><polygon class="cls-4" points="203.559 4.664 201.183 4.664 199.001 10.243 196.945 10.243 197.419 11.27 199.614 11.27 201.793 5.707 202.949 5.707 206.276 14.205 207.301 14.205 203.559 4.664"/><polygon class="cls-4" points="199.826 11.589 198.804 14.206 199.818 14.206 200.432 12.645 204.31 12.645 204.926 14.206 205.936 14.206 204.914 11.589 199.826 11.589"/><polygon class="cls-4" points="145.045 13.147 144.246 13.147 139.852 6.025 139.56 6.025 139.56 14.205 140.599 14.205 140.599 9.198 143.696 14.205 143.704 14.205 146.079 14.205 146.079 4.664 145.045 4.664 145.045 13.147"/><polygon class="cls-4" points="139.245 5.707 139.245 5.707 139.245 5.702 140.046 5.702 144.445 12.827 144.73 12.827 144.73 4.664 143.704 4.664 143.704 9.685 140.599 4.664 138.217 4.664 138.217 14.206 139.245 14.206 139.245 5.707"/><polygon class="cls-4" points="186.036 13.147 185.238 13.147 180.841 6.025 180.55 6.025 180.55 14.199 180.237 14.199 180.237 5.706 180.237 5.701 181.035 5.701 185.434 12.827 185.72 12.827 185.72 4.664 184.697 4.664 184.697 9.684 181.59 4.664 179.217 4.664 179.217 14.205 181.59 14.205 181.59 9.198 184.692 14.205 184.697 14.205 187.07 14.205 187.07 4.664 186.036 4.664 186.036 13.147"/><polygon class="cls-4" points="214.815 4.664 212.634 8.193 210.45 4.664 208.078 4.664 208.078 14.205 209.098 14.205 209.098 5.707 209.098 5.701 209.897 5.701 212.634 10.136 215.374 5.701 216.173 5.701 216.173 5.707 216.173 14.205 217.192 14.205 217.192 4.664 214.815 4.664"/><polygon class="cls-4" points="215.566 6.025 212.634 10.775 212.634 10.776 212.634 10.775 209.701 6.025 209.413 6.025 209.413 14.206 210.45 14.206 210.45 9.198 212.634 12.722 214.815 9.198 214.815 14.206 215.857 14.206 215.857 6.025 215.566 6.025"/><rect class="cls-4" x="110.158" y="4.666" width="1.029" height="9.54"/><rect class="cls-4" x="111.504" y="4.666" width="1.028" height="9.54"/><path class="cls-4" d="M103.652,10.241l.997-2.544,.998,2.544h-1.995Zm.632-4.214l-2.057,5.256h4.846l-2.06-5.256h-.729Z"/><polygon class="cls-4" points="105.837 4.665 103.459 4.665 101.276 10.24 99.225 10.24 99.705 11.282 101.886 11.282 104.071 5.709 105.228 5.709 108.552 14.205 109.575 14.205 105.837 4.665"/><polygon class="cls-4" points="99.853 11.601 100.335 12.646 99.723 14.205 100.744 14.205 101.763 11.601 99.853 11.601"/><polygon class="cls-4" points="102.1 11.601 101.082 14.205 102.098 14.205 102.71 12.646 106.59 12.646 107.199 14.205 108.214 14.205 107.197 11.601 102.1 11.601"/><path class="cls-4" d="M79.955,13.162h-5.796V5.71h5.796v7.452Zm1.03-8.497h-7.86V14.205h7.86V4.665Z"/><path class="cls-4" d="M75.503,7.07h3.104v4.731h-3.104V7.07Zm-1.031,5.772h5.166V6.027h-5.166v6.815Z"/><path class="cls-4" d="M125.445,7.07h3.106v4.731h-3.106V7.07Zm-1.029,5.772h5.165V6.027h-5.165v6.815Z"/><path class="cls-4" d="M129.897,13.162h-5.796V5.71h5.796v7.452Zm1.029-8.497h-7.858V14.205h7.858V4.665Z"/><polygon class="cls-4" points="65.216 9.596 65.216 14.205 66.247 14.205 66.247 10.639 69.351 10.639 69.351 14.205 70.382 14.205 70.382 9.596 65.216 9.596"/><rect class="cls-4" x="70.698" y="4.665" width="1.03" height="9.54"/><rect class="cls-1" x="63.87" y="4.666" width="1.031" height="9.54"/><polygon class="cls-4" points="70.383 9.277 70.383 4.666 69.354 4.666 69.352 8.234 66.248 8.234 66.248 4.666 65.217 4.666 65.217 9.277 70.383 9.277"/><polygon class="cls-4" points="88.748 4.665 87.392 4.665 84.756 7.708 84.756 4.665 83.728 4.665 83.728 10.476 88.748 4.665"/><polygon class="cls-4" points="88.874 14.205 86.112 8.208 83.728 10.96 83.728 14.205 84.757 14.205 84.757 11.353 85.849 10.097 87.74 14.205 88.874 14.205"/><polygon class="cls-4" points="89.222 14.205 90.36 14.205 87.556 8.121 90.55 4.665 89.167 4.665 86.339 7.947 89.222 14.205"/><rect class="cls-4" x="82.384" y="4.666" width="1.028" height="9.54"/><rect class="cls-4" x="91.367" y="4.666" width="1.031" height="9.54"/><polygon class="cls-4" points="98.207 14.205 99.348 14.205 96.543 8.121 99.536 4.665 98.153 4.665 95.322 7.947 98.207 14.205"/><polygon class="cls-4" points="97.859 14.205 95.096 8.208 92.715 10.96 92.715 14.205 93.745 14.205 93.745 11.353 94.832 10.097 96.724 14.205 97.859 14.205"/><polygon class="cls-4" points="97.732 4.665 96.378 4.665 93.745 7.708 93.745 4.665 92.714 4.665 92.714 10.476 97.732 4.665"/><path class="cls-4" d="M120.639,6.191v6.492l-.934,.478h-4.863V5.709h4.866l.931,.482Zm-6.827-1.526V14.205h6.139l1.718-.883V5.549l-1.718-.884h-6.139Z"/><path class="cls-4" d="M119.295,11.801h-3.106V7.07h3.106v4.731Zm-4.135-5.774v6.815h4.469l.696-.355V6.385l-.696-.358h-4.469Z"/></svg>